<svg id="a1743126-e8a0-4165-9388-45ce4728d299" data-name="Layer 1" xmlns="http://www.w3.org/2000/svg" width="47.72mm" height="24.54mm" viewBox="0 0 135.28 69.56"><path d="M73.43,16.12a6.06,6.06,0,0,0,4.11,1.25,7.83,7.83,0,0,0,3.07-.53,4,4,0,0,0,1.91-1.59A4.21,4.21,0,0,0,83.19,13a4.35,4.35,0,0,0-.56-2.28,4.12,4.12,0,0,0-1.56-1.45,14,14,0,0,0-3.08-1,7.28,7.28,0,0,1-2.62-1A1.11,1.11,0,0,1,75,6.38a1,1,0,0,1,.45-.88A3.27,3.27,0,0,1,77.35,5a2.84,2.84,0,0,1,1.8.48,2.53,2.53,0,0,1,.79,1.59l2.85-.13a4.2,4.2,0,0,0-1.41-3.14,5.9,5.9,0,0,0-4-1.18,7,7,0,0,0-2.78.49,3.94,3.94,0,0,0-1.77,1.45,3.78,3.78,0,0,0,.69,4.91,7.67,7.67,0,0,0,3.22,1.41q1.79.45,2.28.63a2.39,2.39,0,0,1,1,.61,1.36,1.36,0,0,1,.29.87,1.74,1.74,0,0,1-.7,1.37,3.74,3.74,0,0,1-4.14-.07,3.38,3.38,0,0,1-1-2.07l-2.78.27a5.49,5.49,0,0,0,1.72,3.65M61.92,5.26a13.09,13.09,0,0,1,2.34.13,2.77,2.77,0,0,1,1.32.67,3.46,3.46,0,0,1,.81,1.39A8.66,8.66,0,0,1,66.68,10a9.49,9.49,0,0,1-.29,2.61A3.16,3.16,0,0,1,65.64,14a2.52,2.52,0,0,1-1.15.59,7.66,7.66,0,0,1-1.72.14H60.64V5.26ZM57.79,17.11h5.36a8.58,8.58,0,0,0,2.52-.3,4.94,4.94,0,0,0,2-1.14,6.29,6.29,0,0,0,1.51-2.52,9.44,9.44,0,0,0,.43-3,10.59,10.59,0,0,0-.46-3.37,6.3,6.3,0,0,0-1.35-2.31,4.64,4.64,0,0,0-2.13-1.31A9.62,9.62,0,0,0,63,2.84H57.79Zm-12,0V7.81l5.7,9.3h2.86V2.84H51.74v9.53L46,2.84H43.19V17.11ZM32.15,11.47l1.91-5.3L36,11.47ZM35.6,2.84h-3l-5.5,14.27h3l1.16-3.24h5.65l1.23,3.24h3.1ZM26.09,17.11v-2.4H19V3H16.15V17.11ZM7.59,2.52A.82.82,0,0,1,7,2.77a.8.8,0,0,1-.6-.25.83.83,0,0,1-.26-.61.85.85,0,0,1,.26-.62A.84.84,0,0,1,7,1a.86.86,0,0,1,.61.25.84.84,0,0,1,.25.62.82.82,0,0,1-.25.61m.73-2a1.88,1.88,0,0,0-2.67,0A1.83,1.83,0,0,0,5.1,1.91a1.87,1.87,0,0,0,.55,1.35A1.8,1.8,0,0,0,7,3.81a1.83,1.83,0,0,0,1.34-.55,1.87,1.87,0,0,0,.55-1.35A1.86,1.86,0,0,0,8.32.55M5.07,11.47,7,6.17l2,5.3ZM8.51,2.84h-3L0,17.11H3l1.17-3.24H9.83l1.24,3.24h3.1Z" style="fill:#fff"/><path d="M133.79,26.62h-15.4a4.07,4.07,0,0,0-2.55.84A3,3,0,0,0,114.75,30,3.77,3.77,0,0,0,115,31.6a2.77,2.77,0,0,0,.8,1,3.38,3.38,0,0,0,1.17.58,5.22,5.22,0,0,0,1.38.18h8.8a10,10,0,0,1,2.53.38,7.44,7.44,0,0,1,4.72,3.91,8.88,8.88,0,0,1,.84,4.1,8.73,8.73,0,0,1-.84,4.08,7.53,7.53,0,0,1-2.07,2.56,7.78,7.78,0,0,1-2.65,1.33,9.53,9.53,0,0,1-2.53.38H108.73V45.29h15.68a3.84,3.84,0,0,0,2.61-1,3.31,3.31,0,0,0,1.08-2.5A3.27,3.27,0,0,0,127,39.27a3.76,3.76,0,0,0-2.61-1h-8.75a10,10,0,0,1-2.57-.37,7.5,7.5,0,0,1-2.65-1.29,7.24,7.24,0,0,1-2.07-2.54,8.61,8.61,0,0,1-.84-4.08,8.57,8.57,0,0,1,.84-4.07,7.4,7.4,0,0,1,2.07-2.51,7.52,7.52,0,0,1,2.65-1.3,10.36,10.36,0,0,1,2.57-.36h18.13ZM104.9,38.29h-16A9.44,9.44,0,0,0,91,43.65a6.21,6.21,0,0,0,4.69,1.64h9.63v4.85H94.07c-3.85,0-6.76-1.21-8.76-3.64s-3-6-3-10.55,1-8.1,3-10.54,4.91-3.64,8.76-3.64h11.27v4.85H95.71a12.39,12.39,0,0,0-2.06.18,4.74,4.74,0,0,0-2,.87A6,6,0,0,0,90,29.77a12.5,12.5,0,0,0-1,3.85h16ZM64.45,50.14h-6V21.77h6V34.71H65L75.72,21.77h7.33L70.94,35.48,83.05,50.14H75.5L65,36.1h-.55ZM35.49,39V50.14h-6V21.77H45.66a11.28,11.28,0,0,1,3.45.49,6.88,6.88,0,0,1,2.66,1.53,6.7,6.7,0,0,1,1.72,2.66,11.38,11.38,0,0,1,.6,3.92,10.39,10.39,0,0,1-.64,4A7.82,7.82,0,0,1,52,36.78a5.88,5.88,0,0,1-1.75,1.29,10.63,10.63,0,0,1-1.44.55l6.09,11.52H47.74L42,39Zm0-4.48h7a7.39,7.39,0,0,0,1.75-.19,3.5,3.5,0,0,0,1.41-.64,3.17,3.17,0,0,0,1-1.2,4.57,4.57,0,0,0,.34-1.91,4.61,4.61,0,0,0-.34-1.9,3.17,3.17,0,0,0-1-1.22,3.5,3.5,0,0,0-1.41-.64,8,8,0,0,0-1.75-.18h-7ZM6.6,21.77l6.9,11.34,6.89-11.34H27L16.49,38V50.14h-6V38L0,21.77Z" style="fill:#fff"/><path d="M117.82,69.35v-15h4.74l3.89,11.58,3.88-11.58h4.74v15h-3.16V58.13h-.1L128,69.35h-3.13l-3.82-11.22H121V69.35Zm-11.92-15V64.39a2.39,2.39,0,0,0,.89,2,3.93,3.93,0,0,0,2.53.72,3.89,3.89,0,0,0,2.51-.72,2.39,2.39,0,0,0,.89-2V54.33h3.16V64.5a4.4,4.4,0,0,1-.5,2.15A4.57,4.57,0,0,1,114,68.24a6.2,6.2,0,0,1-2.07,1,10.19,10.19,0,0,1-5.22,0,6.31,6.31,0,0,1-2.09-1,4.79,4.79,0,0,1-1.38-1.59,4.52,4.52,0,0,1-.5-2.15V54.33Zm-8.26,0h3.17v15H97.64Zm-2.7,2.57H86.79a2.14,2.14,0,0,0-1.35.44,1.62,1.62,0,0,0-.58,1.35,1.88,1.88,0,0,0,.16.84,1.37,1.37,0,0,0,.42.55,1.72,1.72,0,0,0,.62.31,2.52,2.52,0,0,0,.73.1h4.66a5,5,0,0,1,1.34.2,4.09,4.09,0,0,1,1.4.7,4.19,4.19,0,0,1,1.1,1.36,4.83,4.83,0,0,1,.44,2.18,4.74,4.74,0,0,1-.44,2.16,4.15,4.15,0,0,1-1.1,1.35,4.09,4.09,0,0,1-1.4.7,5,5,0,0,1-1.34.21H81.68V66.78H90a1.94,1.94,0,0,0,.76-.15,1.78,1.78,0,0,0,1-1,1.67,1.67,0,0,0,.16-.74,1.75,1.75,0,0,0-.57-1.34A2,2,0,0,0,90,63.07H85.35A5.42,5.42,0,0,1,84,62.88a3.94,3.94,0,0,1-1.39-.69,3.82,3.82,0,0,1-1.11-1.34,5.5,5.5,0,0,1,0-4.31,4,4,0,0,1,2.5-2,5.42,5.42,0,0,1,1.37-.19h9.59ZM70.58,63.34h4.28L72.72,58Zm.54-9h3.2l6.33,15H77.28L75.81,65.7H69.63l-1.47,3.65H64.79Zm-21,15v-15h4l6,11h.08v-11h3.17v15h-4l-6-11h-.08v11Zm-19.19,0v-15h4.74l3.89,11.58,3.88-11.58h4.74v15H45V58.13h-.1l-3.8,11.22H38L34.17,58.13h-.08V69.35Zm-12.13-15,3.65,6,3.65-6h3.48L24,62.9v6.45H20.87V62.9l-5.56-8.57ZM1.58,67.42A8.65,8.65,0,0,1,0,61.84a8.65,8.65,0,0,1,1.58-5.58,5.65,5.65,0,0,1,4.64-1.93h7.93V56.9h-7a3.13,3.13,0,0,0-2.8,1.26,6.65,6.65,0,0,0-.85,3.68,6.61,6.61,0,0,0,.85,3.67,3.12,3.12,0,0,0,2.8,1.27H11V63.07H6.81V60.6h7.34v8.75H6.22a5.68,5.68,0,0,1-4.64-1.93" style="fill:#fff"/></svg>